<?xml version="1.0" encoding="utf-8"?>
<!DOCTYPE svg PUBLIC "-//W3C//DTD SVG 1.1//EN" "http://www.w3.org/Graphics/SVG/1.1/DTD/svg11.dtd">
<svg version="1.1" id="Layer_1" xmlns="http://www.w3.org/2000/svg" xmlns:xlink="http://www.w3.org/1999/xlink" x="0px" y="0px"
	 width="100%" height="100%" viewBox="0 0 135 40" enable-background="new 0 0 135 40" xml:space="preserve">
 <defs>
  <linearGradient id="SVGID_1_" x1="0.50003" y1="1.00272" x2="0.50003" y2="0.10131">
   <stop offset="0" stop-opacity="0.1" stop-color="#1A1A1A"/>
   <stop offset="0.1235" stop-opacity="0.1506" stop-color="#212121"/>
   <stop offset="0.3085" stop-opacity="0.2265" stop-color="#353535"/>
   <stop offset="0.5321" stop-opacity="0.3181" stop-color="#575757"/>
   <stop offset="0.7834" stop-opacity="0.4212" stop-color="#858585"/>
   <stop offset="1" stop-opacity="0.51" stop-color="#B3B3B3"/>
  </linearGradient>
 </defs>
 <g>
  <title>Layer 1</title>
  <path fill="#FFFFFF" d="m30.128,19.784c-0.029,-3.223 2.639,-4.791 2.761,-4.864c-1.511,-2.203 -3.853,-2.504 -4.676,-2.528c-1.967,-0.207 -3.875,1.177 -4.877,1.177c-1.022,0 -2.565,-1.157 -4.228,-1.123c-2.14,0.033 -4.142,1.272 -5.24,3.196c-2.266,3.923 -0.576,9.688 1.595,12.859c1.086,1.554 2.355,3.287 4.016,3.226c1.625,-0.066 2.232,-1.035 4.193,-1.035c1.943,0 2.513,1.035 4.207,0.996c1.744,-0.027 2.842,-1.56 3.89,-3.127c1.255,-1.779 1.759,-3.533 1.779,-3.623c-0.04,-0.014 -3.386,-1.292 -3.42,-5.154z" id="svg_5"/>
  <path fill="#FFFFFF" d="m26.928,10.306c0.874,-1.093 1.472,-2.58 1.306,-4.089c-1.265,0.056 -2.847,0.875 -3.758,1.944c-0.806,0.942 -1.526,2.486 -1.34,3.938c1.421,0.106 2.88,-0.717 3.792,-1.793z" id="svg_6"/>
  <path fill="url(#SVGID_1_)" d="m130.198,0l-67.205,0l26.323,39.989l40.882,0c2.604,0 4.729,-2.117 4.729,-4.724l0,-30.539c0.00099,-2.606 -2.12401,-4.726 -4.729,-4.726z" id="svg_7"/>
  <g id="svg_8">
   <path fill="#FFFFFF" d="m53.665,31.504l-2.271,0l-1.244,-3.909l-4.324,0l-1.185,3.909l-2.211,0l4.285,-13.308l2.646,0l4.304,13.308zm-3.89,-5.549l-1.125,-3.475c-0.119,-0.355 -0.343,-1.191 -0.671,-2.507l-0.04,0c-0.132,0.566 -0.343,1.402 -0.632,2.507l-1.106,3.475l3.574,0z" id="svg_9"/>
   <path fill="#FFFFFF" d="m64.663,26.588c0,1.632 -0.443,2.922 -1.33,3.869c-0.794,0.843 -1.781,1.264 -2.958,1.264c-1.271,0 -2.185,-0.453 -2.74,-1.361l0,5.035l-2.132,0l0,-10.333c0,-1.025 -0.027,-2.076 -0.079,-3.154l1.875,0l0.119,1.521l0.04,0c0.711,-1.146 1.79,-1.719 3.238,-1.719c1.132,0 2.077,0.447 2.833,1.342c0.755,0.897 1.134,2.075 1.134,3.536zm-2.172,0.078c0,-0.934 -0.21,-1.704 -0.632,-2.311c-0.461,-0.631 -1.08,-0.947 -1.856,-0.947c-0.526,0 -1.004,0.176 -1.431,0.523c-0.428,0.35 -0.708,0.807 -0.839,1.373c-0.066,0.264 -0.099,0.479 -0.099,0.649l0,1.601c0,0.697 0.214,1.286 0.642,1.768c0.428,0.48 0.984,0.721 1.668,0.721c0.803,0 1.428,-0.311 1.875,-0.928c0.448,-0.619 0.672,-1.435 0.672,-2.449z" id="svg_10"/>
   <path fill="#FFFFFF" d="m75.7,26.588c0,1.632 -0.44299,2.922 -1.32999,3.869c-0.79501,0.843 -1.78101,1.264 -2.959,1.264c-1.271,0 -2.18501,-0.453 -2.74001,-1.361l0,5.035l-2.132,0l0,-10.333c0,-1.025 -0.027,-2.076 -0.079,-3.154l1.875,0l0.119,1.521l0.04,0c0.71,-1.146 1.78899,-1.719 3.238,-1.719c1.131,0 2.076,0.447 2.834,1.342c0.754,0.897 1.134,2.075 1.134,3.536zm-2.173,0.078c0,-0.934 -0.211,-1.704 -0.633,-2.311c-0.461,-0.631 -1.078,-0.947 -1.854,-0.947c-0.526,0 -1.004,0.176 -1.433,0.523c-0.428,0.35 -0.707,0.807 -0.83801,1.373c-0.06499,0.264 -0.1,0.479 -0.1,0.649l0,1.601c0,0.697 0.215,1.286 0.641,1.768c0.428,0.479 0.984,0.721 1.67001,0.721c0.80399,0 1.42899,-0.311 1.875,-0.928c0.448,-0.619 0.672,-1.435 0.672,-2.449z" id="svg_11"/>
   <path fill="#FFFFFF" d="m88.04,27.771c0,1.133 -0.396,2.054 -1.183,2.765c-0.866,0.776 -2.075,1.165 -3.625,1.165c-1.432,0 -2.58,-0.276 -3.446,-0.829l0.493,-1.777c0.935,0.554 1.962,0.83 3.08,0.83c0.804,0 1.429,-0.182 1.875,-0.543c0.447,-0.362 0.673,-0.846 0.673,-1.45c0,-0.541 -0.187,-0.994 -0.554,-1.363c-0.369,-0.368 -0.979,-0.711 -1.836,-1.026c-2.33,-0.869 -3.49599,-2.14 -3.49599,-3.812c0,-1.092 0.41199,-1.986 1.23399,-2.685c0.82201,-0.698 1.912,-1.047 3.26801,-1.047c1.211,0 2.21999,0.211 3.021,0.632l-0.535,1.738c-0.75401,-0.408 -1.605,-0.612 -2.557,-0.612c-0.75201,0 -1.342,0.185 -1.764,0.553c-0.355,0.329 -0.535,0.73 -0.535,1.206c0,0.525 0.205,0.961 0.613,1.303c0.354,0.315 1,0.658 1.93401,1.026c1.146,0.462 1.98801,1 2.527,1.618c0.543,0.618 0.813,1.389 0.813,2.308l-0.00001,0z" id="svg_12"/>
   <path fill="#FFFFFF" d="m95.107,23.508l-2.35,0l0,4.659c0,1.185 0.41399,1.776 1.244,1.776c0.381,0 0.697,-0.032 0.947,-0.099l0.05901,1.619c-0.42001,0.157 -0.97301,0.236 -1.658,0.236c-0.842,0 -1.5,-0.257 -1.975,-0.771c-0.473,-0.514 -0.711,-1.375 -0.711,-2.587l0,-4.837l-1.4,0l0,-1.6l1.4,0l0,-1.757l2.094,-0.632l0,2.389l2.35,0l0,1.604l-0.00001,0z" id="svg_13"/>
   <path fill="#FFFFFF" d="m105.689,26.627c0,1.475 -0.422,2.686 -1.264,3.633c-0.881,0.975 -2.053,1.461 -3.514,1.461c-1.41,0 -2.53101,-0.467 -3.367,-1.4c-0.836,-0.935 -1.254,-2.113 -1.254,-3.534c0,-1.487 0.432,-2.705 1.293,-3.652c0.863,-0.948 2.025,-1.422 3.486,-1.422c1.408,0 2.539,0.468 3.395,1.402c0.818,0.906 1.22501,2.076 1.22501,3.512l-0.00001,0zm-2.21001,0.049c0,-0.879 -0.18999,-1.633 -0.571,-2.264c-0.447,-0.762 -1.087,-1.143 -1.916,-1.143c-0.854,0 -1.509,0.381 -1.95499,1.143c-0.382,0.631 -0.57201,1.398 -0.57201,2.304c0,0.88 0.19,1.636 0.57201,2.265c0.461,0.762 1.104,1.143 1.937,1.143c0.815,0 1.454,-0.389 1.916,-1.162c0.392,-0.646 0.589,-1.405 0.589,-2.286l-0.00001,0z" id="svg_14"/>
   <path fill="#FFFFFF" d="m112.622,23.783c-0.211,-0.039 -0.437,-0.059 -0.672,-0.059c-0.75,0 -1.32999,0.282 -1.738,0.85c-0.354,0.5 -0.532,1.132 -0.532,1.895l0,5.035l-2.132,0l0,-6.574c0,-1.105 -0.021,-2.113 -0.062,-3.021l1.857,0l0.078,1.836l0.05901,0c0.226,-0.631 0.57999,-1.14 1.06599,-1.521c0.47501,-0.343 0.988,-0.514 1.541,-0.514c0.197,0 0.375,0.014 0.533,0.039l0.002,2.034l0,0z" id="svg_15"/>
   <path fill="#FFFFFF" d="m122.157,26.252c0,0.382 -0.02499,0.704 -0.078,0.967l-6.396,0c0.024,0.948 0.334,1.674 0.928,2.174c0.539,0.446 1.236,0.67 2.092,0.67c0.947,0 1.811,-0.15 2.588,-0.453l0.334,1.479c-0.908,0.396 -1.98,0.593 -3.217,0.593c-1.488,0 -2.656,-0.438 -3.506,-1.312c-0.848,-0.875 -1.273,-2.051 -1.273,-3.524c0,-1.446 0.395,-2.651 1.186,-3.612c0.828,-1.026 1.947,-1.539 3.355,-1.539c1.383,0 2.43,0.513 3.141,1.539c0.563,0.813 0.846,1.821 0.846,3.018zm-2.033,-0.553c0.015,-0.633 -0.125,-1.178 -0.414,-1.639c-0.369,-0.594 -0.937,-0.89 -1.698,-0.89c-0.697,0 -1.265,0.289 -1.697,0.869c-0.355,0.461 -0.566,1.015 -0.631,1.658l4.44,0.002l0,0z" id="svg_16"/>
  </g>
  <g id="svg_17">
   <g id="svg_18">
    <path fill="#FFFFFF" d="m43.425,7.29c0.446,-0.281 1.077,-0.514 1.893,-0.514c1.301,0 2.115,0.66 2.115,1.64c0,0.815 -0.562,1.397 -1.329,1.572l0,0.02c0.863,0.107 1.553,0.689 1.562,1.592c0,1.417 -1.34,1.941 -2.543,1.941c-0.641,0 -1.319,-0.136 -1.854,-0.447l0.271,-0.922c0.33,0.175 0.961,0.398 1.533,0.398c0.845,0 1.34,-0.408 1.34,-1.039c0,-0.834 -0.845,-1.038 -1.562,-1.038l-0.515,0l0,-0.893l0.515,0c0.757,0 1.339,-0.407 1.339,-1c0,-0.534 -0.407,-0.854 -1.077,-0.854c-0.495,0 -1.038,0.204 -1.397,0.398l-0.291,-0.854z" id="svg_19"/>
    <path fill="#FFFFFF" d="m52.874,12.298c0,0.427 0.02,0.844 0.078,1.135l-1.077,0l-0.088,-0.524l-0.029,0c-0.281,0.369 -0.776,0.631 -1.397,0.631c-0.95,0 -1.484,-0.689 -1.484,-1.407c0,-1.184 1.058,-1.795 2.805,-1.786l0,-0.077c0,-0.311 -0.126,-0.825 -0.961,-0.825c-0.466,0 -0.951,0.146 -1.271,0.35l-0.232,-0.776c0.35,-0.213 0.961,-0.417 1.708,-0.417c1.514,0 1.95,0.961 1.95,1.999l0,1.697l-0.002,0zm-1.164,-1.174c-0.845,-0.01 -1.65,0.165 -1.65,0.883c0,0.466 0.301,0.68 0.68,0.68c0.485,0 0.825,-0.311 0.941,-0.65c0.029,-0.087 0.029,-0.175 0.029,-0.262l0,-0.651z" id="svg_20"/>
    <path fill="#FFFFFF" d="m57.792,8.707l0,0.941l-1.932,0l0,3.785l-1.193,0l0,-4.726l3.125,0z" id="svg_21"/>
    <path fill="#FFFFFF" d="m59.119,10.279c0,-0.621 -0.02,-1.126 -0.039,-1.572l1.048,0l0.059,0.728l0.02,0c0.35,-0.534 0.902,-0.835 1.62,-0.835c1.087,0 1.99,0.932 1.99,2.407c0,1.708 -1.077,2.533 -2.154,2.533c-0.593,0 -1.088,-0.252 -1.33,-0.631l-0.02,0l0,2.445l-1.193,0l-0.001,-5.075l0,0zm1.193,1.175c0,0.116 0.01,0.223 0.029,0.33c0.126,0.485 0.543,0.834 1.058,0.834c0.757,0 1.203,-0.63 1.203,-1.562c0,-0.835 -0.407,-1.514 -1.174,-1.514c-0.495,0 -0.951,0.359 -1.077,0.883c-0.02,0.097 -0.039,0.204 -0.039,0.301l0,0.728z" id="svg_22"/>
    <path fill="#FFFFFF" d="m66.094,8.707l0.845,2.533c0.097,0.291 0.203,0.65 0.271,0.912l0.029,0c0.067,-0.262 0.155,-0.621 0.252,-0.922l0.737,-2.523l1.272,0l-1.184,3.222c-0.65,1.767 -1.08701,2.552 -1.642,3.038c-0.47601,0.408 -0.96101,0.563 -1.25201,0.602l-0.271,-1c0.20399,-0.048 0.446,-0.155 0.689,-0.33c0.232,-0.146 0.494,-0.427 0.659,-0.748c0.049,-0.087 0.068,-0.155 0.068,-0.213c0,-0.048 -0.01,-0.116 -0.05901,-0.233l-1.737,-4.338l1.323,0l0,0l0.00002,0z" id="svg_23"/>
    <path fill="#FFFFFF" d="m71.167,10.619l0.562,0c0.66,0 1.039,-0.262 1.039,-0.602c0,-0.34 -0.319,-0.563 -0.854,-0.563c-0.398,0 -0.834,0.136 -1.164,0.33l-0.264,-0.708c0.525,-0.311 1.166,-0.456 1.768,-0.456c0.805,0 1.775,0.311 1.775,1.252c0,0.602 -0.553,0.951 -1.039,1.058l0,0.029c0.631,0.058 1.252,0.437 1.252,1.135c0,1.097 -1.23199,1.438 -2.203,1.438c-0.611,0 -1.242,-0.146 -1.707,-0.417l0.271,-0.767c0.33,0.185 0.834,0.32 1.311,0.33c0.66,0 1.02,-0.282 1.02,-0.641c0,-0.505 -0.516,-0.66 -1.186,-0.66l-0.582,0l0.001,-0.758l0,0z" id="svg_24"/>
    <path fill="#FFFFFF" d="m76.881,8.707l0,1.698c0,0.747 -0.029,1.252 -0.06799,1.912l0.03899,0c0.252,-0.553 0.387,-0.902 0.64201,-1.397l1.153,-2.212l1.445,0l0,4.726l-1.135,0l0,-1.688c0,-0.757 0.029,-1.106 0.078,-1.999l-0.039,0c-0.232,0.562 -0.389,0.902 -0.621,1.358c-0.359,0.699 -0.797,1.553 -1.203,2.329l-1.42799,0l0,-4.727l1.13699,0l-0.00002,0z" id="svg_25"/>
    <path fill="#FFFFFF" d="m85.407,8.707l0,0.922l-1.416,0l0,3.804l-1.193,0l0,-3.804l-1.418,0l0,-0.922l4.027,0z" id="svg_26"/>
    <path fill="#FFFFFF" d="m87.54,11.405c0.028,0.854 0.688,1.223 1.457,1.223c0.553,0 0.93999,-0.087 1.312,-0.213l0.174,0.815c-0.408,0.174 -0.971,0.301 -1.65,0.301c-1.533,0 -2.436,-0.941 -2.436,-2.387c0,-1.311 0.797,-2.543 2.311,-2.543c1.533,0 2.037,1.262 2.037,2.3c0,0.223 -0.02,0.398 -0.039,0.504l-3.166,0zm2.078,-0.835c0.01,-0.437 -0.187,-1.155 -0.979,-1.155c-0.738,0 -1.05,0.669 -1.099,1.155l2.078,0z" id="svg_27"/>
    <path fill="#FFFFFF" d="m94.786,8.765c0.351,-0.058 1.075,-0.116 1.728,-0.116c0.797,0 2.223,0.106 2.223,1.193c0,0.602 -0.465,0.941 -0.971,1.048l0,0.019c0.709,0.107 1.184,0.495 1.184,1.155c0,1.291 -1.707,1.426 -2.64799,1.426c-0.60201,0 -1.232,-0.048 -1.514,-0.058l-0.002,-4.667l0,0l-0.00001,0zm1.16399,3.95c0.192,0.02 0.34,0.02 0.57101,0.02c0.543,0 1.203,-0.136 1.203,-0.699c0,-0.524 -0.522,-0.699 -1.271,-0.699l-0.50301,0l0,1.378zm0.009,-2.096l0.494,0c0.60201,0 1.10699,-0.165 1.10699,-0.621c0,-0.378 -0.32999,-0.582 -1.029,-0.582c-0.242,0 -0.39799,0.02 -0.57201,0.039l0,1.164l0.00002,0z" id="svg_28"/>
   </g>
  </g>
 </g>
</svg>