<?xml version="1.0" encoding="utf-8"?>
<!DOCTYPE svg PUBLIC "-//W3C//DTD SVG 1.0//EN" "http://www.w3.org/TR/2001/REC-SVG-20010904/DTD/svg10.dtd">
<svg version="1.1" id="Layer_1" xmlns="http://www.w3.org/2000/svg" xmlns:xlink="http://www.w3.org/1999/xlink" x="0px" y="0px"
	 width="100%" height="100%" viewBox="0 0 135 40" enable-background="new 0 0 135 40" xml:space="preserve">
 <defs>
  <linearGradient y2="-0.5924" x2="0.33492" y1="0.91985" x1="0.60095" id="SVGID_1_">
   <stop stop-color="#D6FFA1" offset="0"/>
   <stop stop-color="#93E2A7" offset="0.3264"/>
   <stop stop-color="#00A3B5" offset="1"/>
  </linearGradient>
  <linearGradient y2="1.14261" x2="0.80439" y1="-1.28776" x1="-0.3202" id="SVGID_2_">
   <stop stop-color="#FF177B" offset="0"/>
   <stop stop-color="#FFA976" offset="0.6721"/>
   <stop stop-color="#FFEC73" offset="1"/>
  </linearGradient>
  <linearGradient y2="-0.29437" x2="-0.00028" y1="0.74719" x1="0.50891" id="SVGID_3_">
   <stop stop-color="#63FFD4" offset="0"/>
   <stop stop-color="#32A0BA" offset="0.4854"/>
   <stop stop-color="#1262A9" offset="0.8349"/>
   <stop stop-color="#064AA2" offset="1"/>
  </linearGradient>
  <linearGradient y2="0.61177" x2="-0.22991" y1="0.35672" x1="1.19287" id="SVGID_4_">
   <stop stop-color="#FF4521" offset="0"/>
   <stop stop-color="#D43E65" offset="0.3411"/>
   <stop stop-color="#9F36B9" offset="0.7935"/>
   <stop stop-color="#8A33DB" offset="1"/>
  </linearGradient>
 </defs>
 <g>
  <title>Layer 1</title>
  <g id="svg_2">
   <g id="svg_3">
    <path id="svg_4" d="m92.80609,29.18927l-0.98293,0.92691c-0.22655,0.12484 -0.45248,0.26979 -0.67783,0.37271c-0.68269,0.30998 -1.37696,0.38794 -1.99387,0.38794c-0.65651,0 -1.68572,-0.04202 -2.73505,-0.80145c-1.45855,-1.028 -2.09618,-2.7935 -2.09618,-4.33245c0,-3.18631 2.59374,-4.74902 4.70882,-4.74902c0.73993,0 1.49937,0.18514 2.11689,0.57551c1.02679,0.67844 1.2923,1.56087 1.43969,2.03408l-4.83184,1.95185l-1.58219,0.12302c0.51218,2.61202 2.2795,4.13148 4.23258,4.13148c0.97562,0 1.69972,-0.3179 2.36415,-0.64676c-0.00063,0.00061 0.13276,-0.06882 0.03776,0.02619l0.00001,-0.00002zm-2.9147,-5.19663c0.39281,-0.14251 0.59622,-0.26613 0.59622,-0.55176c0,-0.82094 -0.92873,-1.76855 -2.03712,-1.76855c-0.82155,0 -2.36233,0.63946 -2.36233,2.85927c0,0.34652 0.04082,0.71558 0.06213,1.08463l3.74109,-1.62361l0,0.00002z" fill="#FFFFFF"/>
    <path id="svg_5" d="m82.70454,29.02971c0,0.79901 0.14251,0.92325 0.81789,0.98537c0.352,0.04141 0.70279,0.06029 1.05053,0.1011l-0.76003,0.45249l-3.62175,0c0.47503,-0.61631 0.55663,-0.67722 0.55663,-1.08829l0,-0.45859l-0.00791,-12.21844l-1.59924,0l1.53896,-0.74177l2.93905,0c-0.63703,0.36844 -0.82702,0.59377 -0.90924,1.3124l-0.00488,11.65572l-0.00001,0z" fill="#FFFFFF"/>
    <path id="svg_6" d="m77.08771,22.00242c0.47137,0.38793 1.45674,1.2107 1.45674,2.77279c0,1.5219 -0.85809,2.23931 -1.72349,2.91835c-0.26552,0.26735 -0.5755,0.55724 -0.5755,1.00546c0,0.45432 0.31059,0.70097 0.5341,0.88489l0.74238,0.57308c0.90253,0.76187 1.7253,1.46038 1.7253,2.87937c0,1.93359 -1.87086,3.8824 -5.40611,3.8824c-2.97803,0 -4.41772,-1.41777 -4.41772,-2.93844c0,-0.74055 0.36784,-1.78864 1.58403,-2.50605c1.27403,-0.77891 3.00055,-0.88305 3.92442,-0.94395c-0.28867,-0.37271 -0.61813,-0.76308 -0.61813,-1.4001c0,-0.34835 0.10474,-0.55602 0.20584,-0.80084c-0.22472,0.02131 -0.45127,0.04323 -0.65713,0.04323c-2.1796,0 -3.41224,-1.62604 -3.41224,-3.22894c0,-0.94518 0.43118,-1.99327 1.31667,-2.75392c1.17173,-0.96466 2.56877,-1.13092 3.67899,-1.13092l4.23502,0l-1.31667,0.7436l-1.27646,0l-0.00003,-0.00002zm-1.45673,9.12349c-0.1681,-0.02192 -0.26918,-0.02192 -0.4726,-0.02192c-0.18636,0 -1.29657,0.04019 -2.15646,0.32886c-0.45493,0.16625 -1.76978,0.65771 -1.76978,2.11812c0,1.45673 1.41959,2.50666 3.61627,2.50666c1.97256,0 3.02065,-0.94578 3.02065,-2.21922c-0.00059,-1.0481 -0.67843,-1.60107 -2.23809,-2.7125l0.00002,0l0,0l0,0l0,0zm0.59132,-3.90493c0.47504,-0.4738 0.51644,-1.12909 0.51644,-1.5018c0,-1.47804 -0.88122,-3.78008 -2.58949,-3.78008c-0.53288,0 -1.11021,0.26796 -1.43786,0.68087c-0.34712,0.42813 -0.45127,0.98354 -0.45127,1.51764c0,1.37635 0.80206,3.65889 2.56818,3.65889c0.5146,0 1.06879,-0.2503 1.394,-0.57551z" fill="#FFFFFF"/>
    <path id="svg_7" d="m64.34612,30.8348c-3.2667,0 -5.01454,-2.54442 -5.01454,-4.84706c0,-2.69119 2.19729,-4.99383 5.3227,-4.99383c3.02127,0 4.91345,2.36537 4.91345,4.84889c0,2.42505 -1.87027,4.992 -5.22161,4.992zm2.56998,-1.66258c0.49695,-0.65772 0.61754,-1.47866 0.61754,-2.27889c0,-1.80996 -0.86235,-5.26179 -3.41103,-5.26179c-0.67782,0 -1.36052,0.26491 -1.8526,0.69791c-0.80266,0.71923 -0.94577,1.62239 -0.94577,2.50909c0,2.03042 1.00303,5.37933 3.49385,5.37933c0.8045,0 1.62482,-0.38915 2.09801,-1.04566l0,0.00001z" fill="#FFFFFF"/>
    <path id="svg_8" d="m53.40902,30.8348c-3.2673,0 -5.01271,-2.54442 -5.01271,-4.84706c0,-2.69119 2.19789,-4.99383 5.32209,-4.99383c3.01945,0 4.90979,2.36537 4.90979,4.84889c0.0006,2.42505 -1.86721,4.992 -5.21917,4.992zm2.57061,-1.66258c0.49329,-0.65772 0.61631,-1.47866 0.61631,-2.27889c0,-1.80996 -0.86479,-5.26179 -3.41103,-5.26179c-0.68026,0 -1.35565,0.26491 -1.84894,0.69791c-0.80388,0.71923 -0.9464,1.62239 -0.9464,2.50909c0,2.03042 1.00729,5.37933 3.49386,5.37933c0.80267,0 1.62178,-0.38915 2.0962,-1.04566l-0.00001,0.00001z" fill="#FFFFFF"/>
    <path id="svg_9" d="m47.09061,30.12165l-2.75513,0.63032c-1.11631,0.176 -2.11872,0.3313 -3.18022,0.3313c-5.31477,0 -7.3391,-3.91224 -7.3391,-6.97309c0,-3.73928 2.86902,-7.20512 7.78185,-7.20512c1.03957,0 2.04016,0.15286 2.95123,0.40073c1.44394,0.4062 2.11872,0.90559 2.54137,1.19913l-1.60047,1.52007l-0.67477,0.15103l0.48111,-0.76735c-0.65163,-0.63641 -1.84954,-1.81117 -4.12296,-1.81117c-3.03953,0 -5.33305,2.31056 -5.33305,5.68383c0,3.62297 2.61872,7.03094 6.81719,7.03094c1.23384,0 1.86903,-0.24787 2.44576,-0.47929l0,-3.10592l-2.90861,0.15652l1.542,-0.82825l4.08216,0l-0.49878,0.4805c-0.1352,0.11449 -0.15285,0.15347 -0.19062,0.30694c-0.02009,0.17539 -0.03836,0.73324 -0.03836,0.92934l0,2.34954l-0.00061,0l-0.00001,0l0.00001,0z" fill="#FFFFFF"/>
   </g>
   <g id="svg_10">
    <path id="svg_11" d="m98.72986,29.27697l0,5.23499l-1.03957,0l0,-13.32013l1.03957,0l0,1.51642c0.67662,-0.97989 1.91412,-1.75758 3.35197,-1.75758c2.57732,0 4.31418,1.95551 4.31418,5.05107c0,3.07486 -1.73686,5.07118 -4.31418,5.07118c-1.35686,0.0006 -2.57243,-0.69913 -3.35197,-1.79595zm6.54924,-3.27461c0,-2.33309 -1.21619,-4.1126 -3.37267,-4.1126c-1.33919,0 -2.61993,1.05296 -3.17656,1.97013l0,4.26363c0.55663,0.91959 1.83737,2.01032 3.17656,2.01032c2.15649,0 3.37267,-1.79473 3.37267,-4.13148z" fill="#FFFFFF"/>
    <path id="svg_12" d="m107.81559,30.83358l0,-13.31952l1.03896,0l0,13.31952l-1.03896,0z" fill="#FFFFFF"/>
    <path id="svg_13" d="m120.5194,33.65022c0.22169,0.09865 0.6011,0.16017 0.84225,0.16017c0.63581,0 1.07854,-0.26005 1.47623,-1.17903l0.75822,-1.71739l-4.09558,-9.72214l1.15955,0l3.51275,8.42496l3.47864,-8.42496l1.17599,0l-4.99445,11.76169c-0.51826,1.21192 -1.33372,1.79474 -2.45369,1.79474c-0.33616,0 -0.77892,-0.0603 -1.03894,-0.13947l0.17904,-0.95857l-0.00002,-0.00001l0,0.00002z" fill="#FFFFFF"/>
    <path id="svg_14" d="m117.48292,30.80496c-0.06941,-0.33434 -0.1218,-0.6285 -0.16016,-0.87514c-0.03226,-0.24543 -0.04993,-0.49633 -0.04993,-0.75151c-0.35689,0.52314 -0.86172,0.95858 -1.50668,1.30205c-0.64556,0.3447 -1.25819,0.51461 -2.09985,0.51461c-1.01277,0 -1.79839,-0.24909 -2.35989,-0.75456c-0.55906,-0.50486 -0.84042,-1.18878 -0.84042,-2.05417c0,-0.86418 0.40741,-1.56574 1.21983,-2.10228c0.81242,-0.53897 1.86295,-0.80632 3.16195,-0.80632l2.42445,0l0,-1.19852c0,-0.69 -0.23569,-1.23201 -0.70461,-1.62604c-0.47137,-0.39342 -1.13274,-0.59317 -1.99082,-0.59317c-0.78378,0 -1.41963,0.18209 -1.90376,0.53653c-0.47988,0.36175 -0.72108,0.80998 -0.72108,1.35016l-1.06391,0l-0.02193,-0.05177c-0.03898,-0.72776 0.29475,-1.36721 1.00303,-1.91837c0.70464,-0.55114 1.62907,-0.82825 2.76608,-0.82825c1.13275,0 2.04992,0.27284 2.74173,0.81729c0.69061,0.53897 1.03712,1.31788 1.03712,2.33614l0,4.75693c0,0.34165 0.01585,0.67173 0.05908,0.99329c0.04385,0.32216 0.11389,0.64371 0.20705,0.95431l-1.19729,0l0,-0.00122l0.00002,0l0.00002,0l0,0l-0.00002,0.00002zm-3.68874,-0.7576c0.88306,0 1.51765,-0.19732 2.16685,-0.58769c0.64433,-0.38854 1.08221,-0.89463 1.31239,-1.50729l0,-1.85137l-2.43601,0c-0.93056,0 -1.70094,0.20584 -2.3069,0.62179c-0.60719,0.41413 -0.91534,0.91533 -0.91534,1.49815c0,0.54932 0.19488,0.98963 0.58282,1.32276c0.38794,0.33678 0.91898,0.50364 1.59618,0.50364l0,0.00001z" fill="#FFFFFF"/>
   </g>
  </g>
  <g id="svg_15">
   <polygon id="svg_16" points="18.631040573120117,24.294105529785156 22.587867736816406,20.337268829345703 22.586423873901367,20.337268829345703 18.631040573120117,24.294105529785156 6.002564430236816,11.667072296142578 6.001842498779297,11.667072296142578 18.631040573120117,24.296268463134766 5.981610298156738,36.94569396972656 5.981610298156738,36.94569396972656 18.631040573120117,24.296268463134766 22.60521125793457,28.27043914794922 22.607378005981445,28.27043914794922 " fill="none"/>
   <path id="svg_17" d="m22.58643,20.33727l-15.4169,-8.47726c-0.43644,-0.23918 -0.84036,-0.29481 -1.16696,-0.19365l12.6292,12.62775l3.95466,-3.95683z" fill="url(#SVGID_1_)"/>
   <path id="svg_18" d="m22.60738,28.27044l5.26252,-2.89392c1.06725,-0.58889 1.06725,-1.54776 0,-2.13449l-5.28204,-2.90476l-3.95683,3.95683l3.97634,3.97634l0.00001,0z" fill="url(#SVGID_2_)"/>
   <path id="svg_19" d="m6.00184,11.66708c-0.46895,0.14669 -0.77243,0.62142 -0.77243,1.33966l0.00289,22.60508c0,0.70957 0.29409,1.1778 0.75003,1.33387l12.64943,-12.64943l-12.62992,-12.62919l0.00001,0z" fill="url(#SVGID_3_)"/>
   <path id="svg_20" d="m5.98161,36.94569c0.32805,0.11127 0.73992,0.05926 1.18719,-0.18642l15.43641,-8.48883l-3.97417,-3.97417l-12.64943,12.64943z" fill="url(#SVGID_4_)"/>
  </g>
  <g id="svg_21">
   <g id="svg_22">
    <path id="svg_23" d="m34.8704,5.60593c0.45105,-0.29518 1.02116,-0.50076 1.74836,-0.50076c1.14941,0 1.94473,0.59956 1.94473,1.62071c0,0.81557 -0.59895,1.44459 -1.36543,1.62132l0,0.01963c0.92358,0.09819 1.61089,0.70695 1.62132,1.65998c0,1.37462 -1.1985,1.92509 -2.40682,1.92509c-0.59956,0 -1.21814,-0.12764 -1.72872,-0.43202l0.22583,-0.66768c0.36391,0.20619 0.94321,0.40257 1.49306,0.40257c0.97267,0 1.51332,-0.53082 1.51332,-1.25741c0,-0.99231 -0.95303,-1.27706 -1.79807,-1.27706l-0.39275,0l0,-0.64865l0.38293,0c0.87449,0 1.56179,-0.54003 1.56179,-1.21752s-0.48111,-1.05122 -1.18868,-1.05122c-0.51119,0 -1.02177,0.2062 -1.38506,0.43202l-0.22583,-0.62901l0,0.00001z" fill="#FFFFFF"/>
    <path id="svg_24" d="m41.27222,9.7605l-0.68731,2.0828l-0.88369,0l2.25954,-6.6203l1.02115,0l2.25954,6.6203l-0.91315,0l-0.70694,-2.0828l-2.34914,0l-0.00001,0zm2.18099,-0.66707l-0.65786,-1.90607c-0.14728,-0.43202 -0.24546,-0.82539 -0.34427,-1.20832l-0.01964,0c-0.09819,0.38293 -0.19576,0.79532 -0.33383,1.19789l-0.64866,1.91589l2.00426,0l0,0.00061l0,0z" fill="#FFFFFF"/>
    <path id="svg_25" d="m49.97349,5.22301l0,0.71677l-2.66211,0l0,5.90353l-0.86467,0l0,-6.6203l3.52678,0z" fill="#FFFFFF"/>
    <path id="svg_26" d="m50.95353,5.30156c0.41238,-0.06873 0.95304,-0.12764 1.64035,-0.12764c0.84504,0 1.4636,0.19638 1.85636,0.54986c0.35348,0.3142 0.57931,0.79532 0.57931,1.38506c0,0.59956 -0.17673,1.07024 -0.51119,1.41451c-0.46148,0.48112 -1.18869,0.7272 -2.02328,0.7272c-0.25529,0 -0.49156,-0.01043 -0.68731,-0.05891l0,2.65168l-0.85484,0l0,-6.54175l0.00062,0l0,0l-0.00002,0zm0.85485,3.19232c0.18656,0.04909 0.4222,0.06873 0.70695,0.06873c1.03159,0 1.65999,-0.51119 1.65999,-1.4047c0,-0.88369 -0.6284,-1.30651 -1.5618,-1.30651c-0.37312,0 -0.65786,0.02946 -0.80513,0.06812l0,2.57436z" fill="#FFFFFF"/>
    <path id="svg_27" d="m56.5496,5.22301l1.31694,2.83884c0.16631,0.39276 0.32401,0.77568 0.47192,1.15922l0.02945,0c0.11782,-0.33446 0.24548,-0.71738 0.40257,-1.1893l1.04079,-2.80878l0.90394,0l-1.39426,3.41816c-0.35348,0.88369 -0.76647,1.89563 -1.23839,2.5044c-0.42159,0.54065 -0.90394,0.81557 -1.49306,0.81557c-0.22583,0 -0.3731,-0.01963 -0.48112,-0.05952l0.07856,-0.69713c0.07854,0.01902 0.17673,0.02946 0.32402,0.02946c0.67749,0 1.08067,-0.65786 1.29608,-1.12977c0.06873,-0.14728 0.0491,-0.24547 -0.02945,-0.40257l-2.20002,-4.47919l0.97206,0l0,0.00061l0.00001,0l0,0l-0.00002,0z" fill="#FFFFFF"/>
    <path id="svg_28" d="m61.51851,5.60593c0.45106,-0.29518 1.02115,-0.50076 1.74836,-0.50076c1.14942,0 1.94473,0.59956 1.94473,1.62071c0,0.81557 -0.59894,1.44459 -1.36543,1.62132l0,0.01963c0.92358,0.09819 1.6109,0.70695 1.62133,1.65998c0,1.37462 -1.1985,1.92509 -2.40683,1.92509c-0.59956,0 -1.21813,-0.12764 -1.72871,-0.43202l0.22583,-0.66768c0.3639,0.20619 0.94321,0.40257 1.49306,0.40257c0.97268,0 1.51331,-0.53082 1.51331,-1.25741c0,-0.99231 -0.95303,-1.27706 -1.79805,-1.27706l-0.39275,0l0,-0.64865l0.38293,0c0.87448,0 1.56179,-0.54003 1.56179,-1.21752s-0.48111,-1.05122 -1.18867,-1.05122c-0.51119,0 -1.02177,0.2062 -1.38507,0.43202l-0.22583,-0.62901l0,0.00001z" fill="#FFFFFF"/>
    <path id="svg_29" d="m67.65524,5.22301l0,2.78976c0,1.04079 -0.01965,1.91527 -0.07856,2.79958l0.02946,0.00982c0.32401,-0.68731 0.7364,-1.40408 1.21753,-2.1902l2.1411,-3.40833l0.85423,0l0,6.6203l-0.80515,0l0,-2.81921c0,-1.07086 0.01044,-1.85636 0.07856,-2.69157l-0.02946,-0.01043c-0.32402,0.72659 -0.7763,1.49368 -1.22795,2.22027l-2.07238,3.30033l-0.91314,0l0,-6.6203l0.80576,0l0.00001,0l-0.00001,0l0.00001,-0.00001z" fill="#FFFFFF"/>
    <path id="svg_30" d="m74.8131,5.9496l-2.01346,0l0,-0.72659l4.90141,0l0,0.72659l-2.02389,0l0,5.89371l-0.86406,0l0,-5.89371z" fill="#FFFFFF"/>
    <path id="svg_31" d="m82.09985,8.73935l-2.56392,0l0,2.38657l2.8683,0l0,0.71738l-3.73295,0l0,-6.6203l3.58568,0l0,0.71677l-2.721,0l0,2.09201l2.56391,0l0,0.70757l-0.00002,0l-0.00002,0l0.00001,0l0,0.00001z" fill="#FFFFFF"/>
    <path id="svg_32" d="m87.39031,5.22301l0,2.77011l3.20216,0l0,-2.77011l0.86404,0l0,6.6203l-0.86404,0l0,-3.10396l-3.20216,0l0,3.10396l-0.86465,0l0,-6.6203l0.86465,0z" fill="#FFFFFF"/>
    <path id="svg_33" d="m94.25364,9.7605l-0.68732,2.0828l-0.88429,0l2.25954,-6.6203l1.02115,0l2.25954,6.6203l-0.91315,0l-0.70694,-2.0828l-2.34853,0zm2.18099,-0.66707l-0.65784,-1.90607c-0.14729,-0.43202 -0.24548,-0.82539 -0.34428,-1.20832l-0.01963,0c-0.09819,0.38293 -0.19576,0.79532 -0.33385,1.19789l-0.64864,1.91589l2.00424,0l0,0.00061l0.00001,0z" fill="#FFFFFF"/>
   </g>
  </g>
 </g>
</svg>